RSLDJ_XZ.mot
version=1
datacolumns 20
datarows 20
range 0.000000 0.190000
inDegrees=yes
endheader
time	pelvis_tilt	pelvis_list	pelvis_rotation	hip_flexion_r	hip_adduction_r	hip_rotation_r	knee_angle_r	ankle_angle_r	hip_flexion_l	hip_adduction_l	hip_rotation_l	knee_angle_l	ankle_angle_l	pelvis_tx	pelvis_ty	pelvis_tz	lumbar_bending	lumbar_rotation	lumbar_extension
0.000000	-16.703703	1.351383	-0.863870	15.671863	7.745012	-7.912747	-10.605360	10.859447	31.672363	-5.493977	2.435164	-62.293762	0.361769	-0.106805	1.265323	0.272311	-0.000000	-0.000000	0.000000
0.010000	-16.915590	1.607932	-0.788706	15.915637	7.475660	-7.802067	-10.741088	11.027590	31.859668	-5.185987	2.472122	-62.307423	0.287983	-0.106187	1.265345	0.272511	-0.000000	-0.000000	0.000000
0.020000	-16.873557	1.932114	-0.704648	15.933649	7.086395	-7.751277	-11.044632	11.607601	31.777744	-4.729839	2.531686	-62.420805	0.257753	-0.105335	1.265043	0.272476	-0.000000	-0.000000	0.000000
0.030000	-16.803752	2.031136	-0.703450	15.897913	6.967370	-7.734191	-11.201218	11.868637	31.693376	-4.598331	2.486587	-62.507757	0.305288	-0.104915	1.264799	0.272417	-0.000000	-0.000000	0.000000
0.040000	-16.747018	2.144535	-0.710505	15.890637	6.838268	-7.697078	-11.403868	12.166906	31.622987	-4.460245	2.400156	-62.621884	0.371173	-0.104363	1.264489	0.272374	-0.000000	-0.000000	0.000000
0.050000	-16.724411	2.266580	-0.724634	15.939536	6.708774	-7.634086	-11.660024	12.489379	31.592995	-4.326047	2.273651	-62.764299	0.445595	-0.103679	1.264118	0.272367	-0.000000	-0.000000	0.000000
0.060000	-16.746268	2.385055	-0.742816	16.061374	6.593207	-7.549219	-11.975495	12.821214	31.620612	-4.210100	2.125742	-62.936380	0.517253	-0.102884	1.263692	0.272411	-0.000000	-0.000000	0.000000
0.070000	-16.811386	2.485096	-0.761524	16.259807	6.506338	-7.454024	-12.353924	13.150375	31.710789	-4.126746	1.986675	-63.139361	0.578646	-0.102007	1.263212	0.272507	-0.000000	-0.000000	0.000000
0.080000	-16.910138	2.553075	-0.779013	16.528165	6.460588	-7.362072	-12.797388	13.471154	31.857283	-4.087554	1.885756	-63.372869	0.629173	-0.101077	1.262679	0.272646	-0.000000	-0.000000	0.000000
0.090000	-17.030879	2.580470	-0.796014	16.856407	6.462792	-7.282796	-13.307853	13.785414	32.048051	-4.097834	1.838515	-63.633334	0.674185	-0.100114	1.262089	0.272811	-0.000000	-0.000000	0.000000
0.100000	-17.164989	2.567114	-0.814270	17.236864	6.510808	-7.217923	-13.887986	14.100206	32.270487	-4.153382	1.841776	-63.912884	0.720715	-0.099126	1.261442	0.272984	-0.000000	-0.000000	0.000000
0.110000	-17.306639	2.521782	-0.834449	17.664223	6.592717	-7.162947	-14.540789	14.423155	32.512461	-4.240279	1.880920	-64.199893	0.772549	-0.098117	1.260742	0.273143	-0.000000	-0.000000	0.000000
0.120000	-17.451626	2.459261	-0.855363	18.134284	6.689871	-7.110556	-15.268769	14.760256	32.763088	-4.338666	1.941259	-64.481734	0.828071	-0.097094	1.259991	0.273277	-0.000000	-0.000000	0.000000
0.130000	-17.598292	2.395611	-0.874969	18.644553	6.782108	-7.053269	-16.073163	15.116073	33.015459	-4.428454	2.015184	-64.748786	0.881722	-0.096060	1.259193	0.273377	-0.000000	-0.000000	0.000000
0.140000	-17.748411	2.343851	-0.892262	19.194754	6.853117	-6.985266	-16.953220	15.493039	33.268819	-4.494810	2.103063	-64.997990	0.927012	-0.095014	1.258340	0.273441	-0.000000	-0.000000	0.000000
0.150000	-17.906151	2.310690	-0.909376	19.785439	6.895267	-6.903694	-17.905294	15.889446	33.527948	-4.532749	2.209444	-65.234400	0.958979	-0.093944	1.257418	0.273475	-0.000000	-0.000000	0.000000
0.160000	-18.075731	2.295386	-0.932517	20.415414	6.911738	-6.809286	-18.921958	16.298672	33.799950	-4.548651	2.337759	-65.469204	0.975300	-0.092829	1.256407	0.273491	-0.000000	-0.000000	0.000000
0.170000	-18.259386	2.291846	-0.970311	21.079920	6.913836	-6.705766	-19.991906	16.711048	34.090458	-4.556686	2.486339	-65.714596	0.976302	-0.091646	1.255285	0.273504	-0.000000	-0.000000	0.000000
0.180000	-18.456161	2.292968	-1.030423	21.770114	6.914695	-6.598425	-21.100772	17.116947	34.401110	-4.571810	2.646771	-65.978674	0.964148	-0.090377	1.254041	0.273528	-0.000000	-0.000000	0.000000
0.190000	-18.661839	2.294545	-1.116733	22.473879	6.923230	-6.492876	-22.232456	17.509306	34.729418	-4.603386	2.804460	-66.263360	0.941758	-0.089014	1.252677	0.273574	-0.000000	-0.000000	0.000000
